<svg xmlns="http://www.w3.org/2000/svg" height="181.333" width="610.667"><path d="M73.539 154.724c9.04 0 15.206-6.596 15.206-15.24 0-8.82-6.166-15.501-15.206-15.501-8.858 0-15.031 6.68-15.031 15.5 0 8.645 6.173 15.241 15.03 15.241zm0-38.955c14.043 0 23.963 10.115 23.963 23.714 0 13.438-9.92 23.455-23.963 23.455-13.858 0-23.875-10.017-23.875-23.455 0-13.599 10.017-23.714 23.875-23.714m201.956 7.448c8.064 0 12.274 5.251 12.982 12.117h-25.829c1.285-7.1 6.188-12.117 12.847-12.117zm21.206 19.07c.075-.923.148-1.852.148-2.804 0-13.609-7.052-23.714-21.798-23.714-12.602 0-21.702 10.105-21.702 23.714 0 .952.06 1.88.147 2.804h-.013c1.014 11.684 8.486 20.68 24.137 20.68 7.559 0 13.995-2.326 18.613-6.103l-3.509-6.425c-3.445 2.559-8.683 4.968-14.845 4.968-9.772 0-14.502-5.326-15.352-13.12H296.7m39.181-25.317v18.368H311.92V116.97H303v44.788h8.919v-19.491h23.962v19.491h8.903V116.97h-8.903m55.872 0h-40.806v7.944h15.956v36.844h8.906v-36.844h15.944v-7.944m56.77 44.777h-8.931V116.96h8.93v44.788m-325.315-23.553v-.406s.816-.249 1.573-1.1c.739-.84 17.079-19.712 17.079-19.712h-10.003l-15.71 18.354h-3.571v-18.354h-8.918v44.774h8.918V142.26h4.05l16.96 19.492h11.103s-19.019-21.456-19.835-22.394c-.791-.875-1.646-1.162-1.646-1.162m288.914 16.829c-2.769 0-5.288-.234-5.288-.234v-16.145s1.951-.528 5.396-.528c7.462 0 10.735 2.902 10.735 8.262 0 5.288-2.965 8.645-10.843 8.645zm1.592-24.369c-4.162 0-6.88.533-6.88.533V116.97h-8.93v44.799s7.337.732 14.908.732c14.008 0 18.626-8.56 18.626-16.404 0-7.98-4.124-15.44-17.724-15.44M22.231 154.724c-9.005 0-13.76-6.596-13.55-15.24.186-8.82 5.249-15.501 14.24-15.501 4.954 0 11.663 4.545 11.663 12.745v12.377c-2.794 3.459-7.104 5.619-12.353 5.619zm12.72-37.747l-.245 5.648h-.567c-2.83-4.212-8.525-6.856-12.972-6.856C8.125 115.77.331 125.884.01 139.483c-.294 13.438 7.573 23.455 20.616 23.455 6.004 0 9.733-1.705 13.378-6.025h.58v4.001c0 8.67-6.014 12.104-12.796 12.104-6.24 0-11.092-2.346-14.068-4.138l-2.917 7.398c2.843 1.456 8.14 4.632 16.985 4.632 12.538 0 21.69-7.462 21.69-21.8v-42.133h-8.525m145.07-.007v32.46c-2.608 3.263-6.611 5.287-11.674 5.287-8.204 0-11.946-6.582-11.761-15.241v-22.517h-8.633v22.517c-.308 13.452 5.076 23.469 18.133 23.469 5.965 0 10.017-1.779 13.377-6.03h.558v4.003c0 8.659-6.006 12.103-12.787 12.103-6.236 0-11.077-2.36-14.068-4.138l-2.903 7.402c2.83 1.457 8.14 4.632 16.971 4.632 12.524 0 21.704-7.475 21.704-21.802V116.97h-8.917m58.722 0s-14.761 20.727-15.192 21.344c-.409.605-.556 1.21-.556 1.21h-.322s-.186-.605-.655-1.21l-16.301-21.344h-8.424v44.788h8.928v-28.556c0-1.989-.407-3.113-.407-3.113h.407l16.402 22.034h.386l15.192-22.034h.42s-.42 1.174-.42 3.089v28.58h8.942V116.97h-8.4m163.702-8.95V63.234l15.02.014v20.85c0 1.52-.332 3.26-.332 3.26h.654l16.366-24.11h14.376v44.788l-15.031-.014V86.975c0-1.51.332-2.927.332-2.927h-.655l-16.354 23.973h-14.376M371.285 95.27c5.459 0 9.09-4.237 9.09-9.573 0-5.445-3.631-9.709-9.09-9.709-5.325 0-9.092 4.264-9.092 9.709 0 5.336 3.767 9.572 9.092 9.572zm-.013-33.213c14.292 0 24.95 10.104 24.95 23.64 0 13.413-10.658 23.518-24.95 23.518-14.132 0-24.79-10.105-24.79-23.518 0-13.536 10.658-23.64 24.79-23.64m-42.802 1.179s-12.55 16.306-13.054 16.946c-.63.757-.679 1.163-.679 1.163h-.644s-.124-.431-.714-1.163c-.89-1.11-13.887-16.946-13.887-16.946h-11.844v44.789h14.464V89.226c0-2.028-.323-3.263-.323-3.263h.655l11.65 13.368h.629l10.794-13.368h.631s-.31 1.212-.31 3.263v18.799h14.48V63.236h-11.849" fill="#562212"/><path d="M520.16 108.686V63.243h-35.823v45.418a44.736 44.736 0 0022.395 38.784l40.277 23.245v-41.315l-22.378-12.934a8.965 8.965 0 01-4.471-7.755" fill="#c59368"/><path d="M547.017 152.788l40.288-23.256A44.774 44.774 0 00609.7 90.76V.567h-62.683v35.821h26.862V90.77c0 3.2-1.702 6.166-4.472 7.76l-22.39 12.93v41.328" fill="#ed5338"/><path d="M547.017.564l-62.672 62.687h62.672z" fill="#562212"/></svg>